<svg width="512" height="512" viewBox="0 0 512 512" fill="none" xmlns="http://www.w3.org/2000/svg">
<g clip-path="url(#clip0_285_447)">
<path d="M411 40.0001H167.9C166.008 28.2088 159.744 17.5629 150.355 10.1827C140.967 2.8024 129.143 -0.770633 117.238 0.175175C105.333 1.12098 94.2219 6.51623 86.1165 15.2864C78.0111 24.0565 73.5065 35.558 73.5 47.5001V464.5C73.5159 477.093 78.5254 489.166 87.43 498.07C96.3345 506.975 108.407 511.984 121 512H366C373.29 511.989 380.279 509.089 385.434 503.934C390.589 498.779 393.489 491.79 393.5 484.5V472H411C418.29 471.989 425.279 469.089 430.434 463.934C435.589 458.779 438.489 451.79 438.5 444.5V67.5001C438.489 60.2098 435.589 53.2213 430.434 48.0663C425.279 42.9113 418.29 40.0106 411 40.0001ZM121 15.0001C129.616 15.0106 137.877 18.4381 143.969 24.5308C150.062 30.6234 153.489 38.8838 153.5 47.5001V429.89C144.707 421.605 133.082 416.99 121 416.99C108.918 416.99 97.2929 421.605 88.5 429.89V47.5001C88.5106 38.8838 91.9381 30.6234 98.0307 24.5308C104.123 18.4381 112.384 15.0106 121 15.0001ZM378.5 484.5C378.495 487.814 377.176 490.99 374.833 493.333C372.49 495.676 369.314 496.995 366 497H121C114.572 497 108.289 495.094 102.944 491.523C97.5994 487.952 93.4338 482.876 90.9739 476.937C88.5141 470.999 87.8705 464.464 89.1245 458.16C90.3785 451.855 93.4738 446.064 98.019 441.519C102.564 436.974 108.355 433.879 114.66 432.625C120.964 431.371 127.499 432.014 133.437 434.474C139.376 436.934 144.452 441.099 148.023 446.444C151.594 451.789 153.5 458.072 153.5 464.5C153.5 466.489 154.29 468.397 155.697 469.803C157.103 471.21 159.011 472 161 472H378.5V484.5ZM423.5 444.5C423.495 447.814 422.176 450.99 419.833 453.333C417.49 455.676 414.314 456.995 411 457H168.5V55.0001H411C414.314 55.0053 417.49 56.324 419.833 58.6671C422.176 61.0101 423.495 64.1865 423.5 67.5001V444.5Z" fill="white"/>
<path d="M391 259.4H201C199.011 259.4 197.103 260.19 195.697 261.597C194.29 263.003 193.5 264.911 193.5 266.9C193.5 268.889 194.29 270.797 195.697 272.203C197.103 273.61 199.011 274.4 201 274.4H391C392.989 274.4 394.897 273.61 396.303 272.203C397.71 270.797 398.5 268.889 398.5 266.9C398.5 264.911 397.71 263.003 396.303 261.597C394.897 260.19 392.989 259.4 391 259.4ZM391 220H256C254.011 220 252.103 220.79 250.697 222.197C249.29 223.603 248.5 225.511 248.5 227.5C248.5 229.489 249.29 231.397 250.697 232.803C252.103 234.21 254.011 235 256 235H391C392.989 235 394.897 234.21 396.303 232.803C397.71 231.397 398.5 229.489 398.5 227.5C398.5 225.511 397.71 223.603 396.303 222.197C394.897 220.79 392.989 220 391 220ZM201 235H227.5C229.489 235 231.397 234.21 232.803 232.803C234.21 231.397 235 229.489 235 227.5C235 225.511 234.21 223.603 232.803 222.197C231.397 220.79 229.489 220 227.5 220H201C199.011 220 197.103 220.79 195.697 222.197C194.29 223.603 193.5 225.511 193.5 227.5C193.5 229.489 194.29 231.397 195.697 232.803C197.103 234.21 199.011 235 201 235ZM391 338.2H201C199.011 338.2 197.103 338.99 195.697 340.397C194.29 341.803 193.5 343.711 193.5 345.7C193.5 347.689 194.29 349.597 195.697 351.003C197.103 352.41 199.011 353.2 201 353.2H391C392.989 353.2 394.897 352.41 396.303 351.003C397.71 349.597 398.5 347.689 398.5 345.7C398.5 343.711 397.71 341.803 396.303 340.397C394.897 338.99 392.989 338.2 391 338.2ZM391 298.8H201C199.011 298.8 197.103 299.59 195.697 300.997C194.29 302.403 193.5 304.311 193.5 306.3C193.5 308.289 194.29 310.197 195.697 311.603C197.103 313.01 199.011 313.8 201 313.8H391C392.989 313.8 394.897 313.01 396.303 311.603C397.71 310.197 398.5 308.289 398.5 306.3C398.5 304.311 397.71 302.403 396.303 300.997C394.897 299.59 392.989 298.8 391 298.8ZM281 417H201C199.011 417 197.103 417.79 195.697 419.197C194.29 420.603 193.5 422.511 193.5 424.5C193.5 426.489 194.29 428.397 195.697 429.803C197.103 431.21 199.011 432 201 432H281C282.989 432 284.897 431.21 286.303 429.803C287.71 428.397 288.5 426.489 288.5 424.5C288.5 422.511 287.71 420.603 286.303 419.197C284.897 417.79 282.989 417 281 417ZM391 417H311C309.011 417 307.103 417.79 305.697 419.197C304.29 420.603 303.5 422.511 303.5 424.5C303.5 426.489 304.29 428.397 305.697 429.803C307.103 431.21 309.011 432 311 432H391C392.989 432 394.897 431.21 396.303 429.803C397.71 428.397 398.5 426.489 398.5 424.5C398.5 422.511 397.71 420.603 396.303 419.197C394.897 417.79 392.989 417 391 417ZM391 377.6H201C199.011 377.6 197.103 378.39 195.697 379.797C194.29 381.203 193.5 383.111 193.5 385.1C193.5 387.089 194.29 388.997 195.697 390.403C197.103 391.81 199.011 392.6 201 392.6H391C392.989 392.6 394.897 391.81 396.303 390.403C397.71 388.997 398.5 387.089 398.5 385.1C398.5 383.111 397.71 381.203 396.303 379.797C394.897 378.39 392.989 377.6 391 377.6ZM201 195H301C302.989 195 304.897 194.21 306.303 192.803C307.71 191.397 308.5 189.489 308.5 187.5V87.5C308.5 85.5109 307.71 83.6032 306.303 82.1967C304.897 80.7902 302.989 80 301 80H201C199.011 80 197.103 80.7902 195.697 82.1967C194.29 83.6032 193.5 85.5109 193.5 87.5V187.5C193.5 189.489 194.29 191.397 195.697 192.803C197.103 194.21 199.011 195 201 195ZM208.5 95H293.5V180H208.5V95ZM391 150H341C339.011 150 337.103 150.79 335.697 152.197C334.29 153.603 333.5 155.511 333.5 157.5V187.5C333.5 189.489 334.29 191.397 335.697 192.803C337.103 194.21 339.011 195 341 195H391C392.989 195 394.897 194.21 396.303 192.803C397.71 191.397 398.5 189.489 398.5 187.5V157.5C398.5 155.511 397.71 153.603 396.303 152.197C394.897 150.79 392.989 150 391 150ZM383.5 180H348.5V165H383.5V180ZM391 80H341C339.011 80 337.103 80.7902 335.697 82.1967C334.29 83.6032 333.5 85.5109 333.5 87.5V117.5C333.5 118.485 333.694 119.46 334.071 120.37C334.448 121.28 335 122.107 335.697 122.803C336.393 123.5 337.22 124.052 338.13 124.429C339.04 124.806 340.015 125 341 125H391C391.985 125 392.96 124.806 393.87 124.429C394.78 124.052 395.607 123.5 396.303 122.803C397 122.107 397.552 121.28 397.929 120.37C398.306 119.46 398.5 118.485 398.5 117.5V87.5C398.5 85.5109 397.71 83.6032 396.303 82.1967C394.897 80.7902 392.989 80 391 80ZM383.5 110H348.5V95H383.5V110Z" fill="white"/>
</g>
<defs>
<clipPath id="clip0_285_447">
<rect width="512" height="512" fill="white"/>
</clipPath>
</defs>
</svg>
